<svg width="124" height="98" viewBox="0 0 124 98" fill="none" xmlns="http://www.w3.org/2000/svg">
<path d="M42.3628 55.007C34.8822 47.1647 37.1875 36.6073 42.2988 31.1712C45.6112 27.6463 50.3615 25.4847 55.5135 25.6536C57.4113 25.7177 59.2567 26.0848 61.0264 26.7432C61.335 26.8597 61.4805 27.2151 61.3524 27.5181L57.65 36.4499C57.5335 36.7238 57.2308 36.8811 56.9514 36.7879C56.3343 36.5898 55.6881 36.4849 55.0245 36.4733C51.6539 36.4266 48.8537 38.8271 48.4346 42.1715C48.1959 44.0825 48.7664 45.9237 49.9889 47.3278C50.1868 47.5492 50.1577 47.893 49.954 48.1027L43.1953 55.007C42.9682 55.2401 42.584 55.2459 42.357 55.007H42.3628ZM85.9423 44.1583C86.245 35.6401 83.148 27.5705 77.2916 21.4878C77.0645 21.2547 76.6862 21.2489 76.4533 21.4878L69.6305 28.3163C69.4035 28.5435 69.4093 28.8989 69.6305 29.132C73.4029 33.1231 75.3705 38.3843 75.1318 43.9369C74.6836 54.2787 66.289 62.7212 55.9617 63.2281C50.4022 63.5019 45.1163 61.5442 41.1112 57.7746C40.8783 57.559 40.5174 57.559 40.2962 57.7804L33.4967 64.6264C33.2638 64.8595 33.2697 65.2382 33.5025 65.4654C39.6151 71.3209 47.7127 74.3973 56.247 74.0477C72.3201 73.3951 85.3834 60.245 85.9539 44.1583H85.9423ZM25.434 30.1691C30.551 18.3998 42.0717 10.8254 54.9372 10.8254C63.3375 10.8254 71.2431 14.0241 77.2683 19.8505C77.4953 20.0719 77.8621 20.0719 78.0833 19.8505L84.9061 13.022C85.1389 12.7889 85.1389 12.4102 84.9061 12.183C76.8375 4.32319 66.2133 0 54.9313 0C37.6823 0 22.2496 10.1845 15.4443 26.0032C15.3163 26.3004 15.4618 26.6558 15.7587 26.7781L24.6714 30.4779C24.9683 30.6002 25.3001 30.4604 25.4282 30.1691H25.434ZM109.874 43.0221C109.874 39.4156 109.525 35.8382 108.832 32.3307L123.537 27.8152C123.974 27.6812 124.096 27.1219 123.753 26.8189L96.1007 2.19655C95.8621 1.98098 95.4895 2.00428 95.2741 2.24316L88.8647 9.45624C88.6493 9.69512 88.6726 10.068 88.9112 10.2836L102.97 22.8045L95.6117 25.0652L97.1719 30.2274C98.4177 34.3583 99.0522 38.664 99.0522 43.0221C99.0522 67.3473 79.2942 87.1454 55.0012 87.1804C31.5174 87.2153 12.2891 69.1768 10.892 45.7139C10.5892 40.6216 11.1481 35.5702 12.5394 30.7459C12.6268 30.4371 12.4579 30.1167 12.1494 30.0234L2.91655 27.2209C2.60219 27.1277 2.27037 27.3025 2.18305 27.6171C0.733505 32.5987 0 37.7784 0 43.0163C0 73.3369 24.6423 98 54.9372 98C85.2321 98 109.874 73.3369 109.874 43.0163V43.0221Z" fill="#FBFBFB"/>
</svg>
